<svg width="88" height="26" viewBox="0 0 88 26" fill="none" xmlns="http://www.w3.org/2000/svg">
<path d="M0.664 0.799998H5.596V26H0.664V0.799998ZM8.62562 1.052C9.17762 0.955999 9.76562 0.871999 10.3896 0.799998C11.0376 0.703998 11.6736 0.631998 12.2976 0.583999C12.9456 0.536 13.5696 0.499999 14.1696 0.475998C14.7696 0.451998 15.3216 0.439999 15.8256 0.439999C17.0016 0.439999 18.1536 0.547999 19.2816 0.763999C20.4336 0.979999 21.4536 1.352 22.3416 1.88C23.2536 2.408 23.9736 3.14 24.5016 4.076C25.0536 4.988 25.3296 6.14 25.3296 7.532C25.3296 9.596 24.8496 11.276 23.8896 12.572C22.9296 13.868 21.6456 14.768 20.0376 15.272L21.8016 16.388L27.5616 26H21.8736L16.1496 16.136L13.5576 15.668V26H8.62562V1.052ZM16.1856 4.832C15.6816 4.832 15.1776 4.844 14.6736 4.868C14.1936 4.892 13.8216 4.94 13.5576 5.012V12.32H15.6456C17.0136 12.32 18.1056 12.008 18.9216 11.384C19.7376 10.76 20.1456 9.728 20.1456 8.288C20.1456 7.208 19.8096 6.368 19.1376 5.768C18.4656 5.144 17.4816 4.832 16.1856 4.832ZM28.4819 0.799998H43.4219V5.192H33.4139V11.06H42.5219V15.452H33.4139V21.608H43.6019V26H28.4819V0.799998ZM65.0385 12.932L65.5785 7.928H65.3625L63.8145 11.96L58.4505 21.356H56.8665L51.2145 11.924L49.6305 7.928H49.4505L50.1705 12.896V26H45.4905V0.799998H49.9905L56.7225 12.32L57.9105 15.2H58.0545L59.1345 12.248L65.5065 0.799998H69.9705V26H65.0385V12.932ZM72.4834 0.799998H87.4234V5.192H77.4154V11.06H86.5234V15.452H77.4154V21.608H87.6034V26H72.4834V0.799998Z" fill="#810000"/>
</svg>
